<?xml version="1.0" encoding="utf-8"?>
<!-- Generator: Adobe Illustrator 19.2.0, SVG Export Plug-In . SVG Version: 6.00 Build 0)  -->
<svg version="1.1" id="Layer_1" xmlns="http://www.w3.org/2000/svg" xmlns:xlink="http://www.w3.org/1999/xlink" x="0px" y="0px"
	 viewBox="0 0 2190 631" style="enable-background:new 0 0 2190 631;" xml:space="preserve">
<style type="text/css">
	.st0{fill:#443642;}
	.st1{fill:#70CADB;}
	.st2{fill:#E01765;}
	.st3{fill:#E8A723;}
	.st4{fill:#3EB890;}
	.st5{fill:#CC2027;}
	.st6{fill:#361238;}
	.st7{fill:#65863A;}
	.st8{fill:#1A937D;}
</style>
<title>background</title>
<title>Layer 1</title>
<path class="st0" d="M579.7,319.3c0-74.4,54.2-126.3,152.8-126.3c60.1,0,109.3,19.2,136,38c3.8,2.7,10.6,9.2,6.5,21.3
	c-5.2,13-14.8,32.7-21.7,45.4c-4,7.4-14.2,6.4-19.5,3.8c-19-9.6-50.1-25.9-78.7-28.9c-7.2-0.8-14.5-1.1-21.8-0.9
	c-25.2,0.6-46.2,9.3-53.7,28.5c-1.5,3.6-2.3,7.5-2.4,11.4c-0.7,25.3,34.6,34.5,77.3,41.8C833.9,367,894,390.3,894,472
	c0,69.4-55.1,132.1-163.2,130.2c-71.2-1.4-121.8-25.5-148.9-48.9c-0.9-0.8-11.2-11.3-5.7-23.9c6.3-16.3,17-34.9,25.4-44.8
	c4.7-6.4,16.9-7.4,23.3-3.4c22.3,13.9,59.1,36.1,101.4,37.6c3.3,0.1,6.7,0.1,9.9,0.1c38.1-0.9,61.1-15.4,60.7-39.7
	c-0.4-21.4-30.6-34-78.7-43C641.5,421.7,579.8,396.4,579.7,319.3 M1276.6,425.2c-54.1,0.7-103.7,15.5-105.1,57.8
	c0,33.5,27.2,50,65.4,47.9c36.6-3.5,64.6-19.4,76.9-40.5c4.6-7.8,5.2-37.1,5-49.5c-0.1-2.7-5.3-7.7-7.6-8.7
	C1299.6,427.2,1291.1,425.7,1276.6,425.2 M1096.6,254.8c25.3-22.6,75.4-57.9,155.4-56c105.5,2.2,161.2,51.6,166.4,169.9
	c2.1,48.8-1.4,184.8-2.2,218.7c-0.1,4.9-1.8,8.2-8.3,8.4c-17.4,0.7-57.5,0.4-75.9,0.2c-9.3-0.5-10.4-5.1-10.5-9.9
	c-0.1-3.2-0.4-12.5-0.5-20.2c-0.1-4.1-3.9-3.9-4.9-2.9c-24.7,26.4-65.3,39.2-108.4,39.2c-65.5,0-130.8-38.5-130.6-114.8
	c0.2-78.1,55.6-116.7,116.5-125.8c39-5.8,82.9-0.6,116.2,12.6c2.1,0.9,6.5-0.4,6.5-3.4c0.1-10-0.3-28.9-2.3-37.9
	c-4.9-22.9-24-41.4-64.2-46.3c-8.3-1-16.6-1.4-24.9-0.7c-31.9,2.5-70.3,27.4-86.2,36.7c-3.7,2.2-9.6,0.6-11.5-1.9
	c-9.3-12-32.6-47.1-34.5-52.7C1090.7,262.5,1093.3,257.8,1096.6,254.8L1096.6,254.8L1096.6,254.8z M1453.1,400.3
	c-0.6-109,75.3-200.9,198.6-201.7c76.9-0.5,132.8,34.4,142.7,50.8c2,3.9,1,7.1-0.4,11c-6.5,13.8-23,40.3-34.7,55.4
	c-5,6.4-10.4,0.9-16.7-3.3c-17.5-11.6-50.7-25.9-83.4-25.9c-59.3,0-103.5,40.7-103,115.5c0.5,71.8,42.8,111.2,103.2,112.7
	c31.6,0.8,62.2-17.4,78.6-32.2c5.2-4.5,10.5-2.3,16.4,2.4c11.6,11.8,28.2,30.1,37.4,42.7c6,7,1.5,13.8-0.7,16.6
	c-25,31.7-73.3,58.3-137.3,58.7C1520.2,603.8,1453.8,509.7,1453.1,400.3 M2092.1,598c6.3-0.5,73.3-9.7,93.9-14.4
	c5.1-1.2,6.9-5.5,4.1-9.7c-11.5-17.2-41.7-66.2-73.4-110c-29.1-40.3-59.8-75.7-69.7-89.3c-2.4-3.3-2.3-6.6,0.3-9.1
	c18.9-18.5,97.8-95.9,127.5-127.8c11.5-12.4,4.6-17.8-5.2-20.7c-18.9-5.6-49.4-12.6-66.7-16.3c-7.3-1.5-16.1-1-22.5,5.6
	c-29.7,27.7-120.3,118.6-147.3,145.8c-4.9,4.9-7.7,3.8-7.7-3.2c-0.2-52.4-1.3-276.7-3.1-313.6c-0.1-4.9-6-8.6-9.3-8.8
	c-17-0.9-60-1.1-76.9-0.2c-4.7,0.5-9.3,5.4-9.7,9.5c-3.9,59,1.7,492.1,4,552.7c0.2,4.4,3.4,7.8,7.6,8c16.9,1,58.7,0.9,78.2,0.5
	c9.6,0,10.8-6.7,10.8-6.7l1.4-116.2c0,0,1-5.2,2.6-6.9c6.9-7.4,25.9-27.8,34-35.7c1.9-1.9,5-1.8,7,0.9c9.6,13,37.1,55.3,62.6,93
	c23.4,34.7,45.2,65.4,46.8,67.6C2084.9,597.9,2089,598.1,2092.1,598L2092.1,598L2092.1,598z M951.8,597.5c5.9,0.2,50.6,0.1,70.5,0.1
	c6.7,0.1,10.1-4.9,10.4-9.4c4.2-84.9,2.4-489.4-0.3-553.2c-0.2-5.5-2.6-7.6-6.4-8.1c-17-2.3-65.4-1.7-80.9,2.3
	c-3,0.8-4.8,3.1-4.9,6.1c-3.8,164.6-1.2,544.1-0.4,551.3C940.6,593.8,944.3,597.3,951.8,597.5L951.8,597.5L951.8,597.5z"/>
<path class="st1" d="M80.6,346.9c-18-1.4-32.3-13.3-36.5-30.5c-0.2-0.6-0.3-1.3-0.4-2c-4.3-21.9,9.4-43.3,31.2-48.7l350.2-85.7
	c4.1-0.8,8.4-1.1,12.6-0.8c18.4,1.4,33.2,13.6,37.5,31.2l0.4,1.7c4.5,22.8-13,41.4-32.5,46.2c0,0-3.6,0.9-348.4,87.3
	C90.1,346.9,85.4,347.3,80.6,346.9L80.6,346.9z"/>
<path class="st2" d="M123.4,519.2c-18.1-1.4-32.5-13.2-36.7-30.1c-0.2-0.6-0.3-1.3-0.4-1.9C82,465,95.7,443.4,117.6,438l350.3-86.7
	c4.5-1.1,9.1-1.5,13.7-1.1c18.2,1.4,33.2,13.8,37.4,30.9l0.4,1.8c2.3,11.8-0.7,24.5-8.1,34.2c-5.5,7.2-21.4,12.6-21.4,12.6
	L138.1,518C133.3,519.1,128.4,519.6,123.4,519.2L123.4,519.2z"/>
<path class="st3" d="M406.9,543.6c-18.1-1.3-33.3-14.2-37.7-31.9l-85.5-347.2l-0.4-1.9c-4.4-22,9.4-43.5,31.2-48.9
	c4.4-1.1,8.8-1.5,13.2-1.1c6.6,0.5,12.8,2.5,18.5,6c9.5,5.8,16.4,15.1,19.1,25.9l85.5,347.2l0.2,1.1c4.5,22.9-9.2,44.4-31,49.8
	C415.8,543.6,411.4,544,406.9,543.6L406.9,543.6z"/>
<path class="st4" d="M233.2,586.4c-18.1-1.3-33.4-14.2-37.7-31.9l-85.4-347.2c-5.6-22.5,8.2-45.2,30.7-50.8c0,0,0.1,0,0.1,0
	c4.3-1.1,8.8-1.4,13.2-1.1c18.1,1.3,33.3,14.2,37.7,31.9l85.4,347.2c5.6,22.5-8.2,45.2-30.7,50.8c0,0-0.1,0-0.1,0
	C242.1,586.3,237.6,586.7,233.2,586.4L233.2,586.4L233.2,586.4z"/>
<path class="st5" d="M357.2,462.9l81.5-20.5l-19.5-79.1l-81.6,20.2L357.2,462.9z"/>
<path class="st6" d="M183.7,506.5l81.5-20.5l-19.6-79.7L164,426.5L183.7,506.5z"/>
<path class="st7" d="M314.8,290.6l81.5-20.4l-19.3-78.2l-81.6,20L314.8,290.6z"/>
<path class="st8" d="M141.3,334.1l81.5-20.4l-19.5-79.2l-81.6,20L141.3,334.1z"/>
</svg>
